<?xml version="1.0" encoding="UTF-8" standalone="no"?>
<!DOCTYPE svg PUBLIC "-//W3C//DTD SVG 1.1//EN"
 "http://www.w3.org/Graphics/SVG/1.1/DTD/svg11.dtd">
<!-- Generated by graphviz version 2.43.0 (0)
 -->
<!-- Title: G Pages: 1 -->
<svg width="871pt" height="482pt"
 viewBox="0.00 0.00 871.00 482.00" xmlns="http://www.w3.org/2000/svg" xmlns:xlink="http://www.w3.org/1999/xlink">
<g id="graph0" class="graph" transform="scale(1 1) rotate(0) translate(4 478)">
<title>G</title>
<polygon fill="white" stroke="transparent" points="-4,4 -4,-478 867,-478 867,4 -4,4"/>
<g id="clust1" class="cluster">
<title>cluster_root</title>
<g id="a_clust1"><a xlink:title="eventq_index=0&#10;full_system=false&#10;sim_quantum=0&#10;time_sync_enable=false&#10;time_sync_period=100000000000&#10;time_sync_spin_threshold=100000000">
<path fill="#bab6ae" stroke="#000000" d="M20,-8C20,-8 843,-8 843,-8 849,-8 855,-14 855,-20 855,-20 855,-454 855,-454 855,-460 849,-466 843,-466 843,-466 20,-466 20,-466 14,-466 8,-460 8,-454 8,-454 8,-20 8,-20 8,-14 14,-8 20,-8"/>
<text text-anchor="middle" x="431.5" y="-450.8" font-family="Arial" font-size="14.00" fill="#000000">root </text>
<text text-anchor="middle" x="431.5" y="-435.8" font-family="Arial" font-size="14.00" fill="#000000">: Root</text>
</a>
</g>
</g>
<g id="clust2" class="cluster">
<title>cluster_system</title>
<g id="a_clust2"><a xlink:title="auto_unlink_shared_backstore=false&#10;cache_line_size=64&#10;eventq_index=0&#10;exit_on_work_items=false&#10;init_param=0&#10;m5ops_base=0&#10;mem_mode=atomic&#10;mem_ranges=&#10;memories=&#10;mmap_using_noreserve=false&#10;multi_thread=false&#10;&#10;um_work_ids=16&#10;&#13;eadfile=&#10;&#13;edirect_paths=&#10;shadow_rom_ranges=&#10;shared_backstore=&#10;symbolfile=&#10;thermal_components=&#10;thermal_model=Null&#10;work_begin_ckpt_count=0&#10;work_begin_cpu_id_exit=&#45;1&#10;work_begin_exit_count=0&#10;work_cpus_ckpt_count=0&#10;work_end_ckpt_count=0&#10;work_end_exit_count=0&#10;work_item_id=&#45;1&#10;workload=system.workload">
<path fill="#e4e7eb" stroke="#000000" d="M28,-16C28,-16 835,-16 835,-16 841,-16 847,-22 847,-28 847,-28 847,-408 847,-408 847,-414 841,-420 835,-420 835,-420 28,-420 28,-420 22,-420 16,-414 16,-408 16,-408 16,-28 16,-28 16,-22 22,-16 28,-16"/>
<text text-anchor="middle" x="431.5" y="-404.8" font-family="Arial" font-size="14.00" fill="#000000">system </text>
<text text-anchor="middle" x="431.5" y="-389.8" font-family="Arial" font-size="14.00" fill="#000000">: System</text>
</a>
</g>
</g>
<g id="clust7" class="cluster">
<title>cluster_system_chiplet_link</title>
<g id="a_clust7"><a xlink:title="bandwidth=16&#10;baseLatency=1&#10;bitErrorRate=1e&#45;12&#10;encodingOverhead=1.0&#10;eventq_index=0&#10;&#10;inkWidth=16&#10;protocol=0&#10;&#13;andomSeed=0">
<path fill="#bab6ae" stroke="#000000" d="M417,-24C417,-24 779,-24 779,-24 785,-24 791,-30 791,-36 791,-36 791,-102 791,-102 791,-108 785,-114 779,-114 779,-114 417,-114 417,-114 411,-114 405,-108 405,-102 405,-102 405,-36 405,-36 405,-30 411,-24 417,-24"/>
<text text-anchor="middle" x="598" y="-98.8" font-family="Arial" font-size="14.00" fill="#000000">chiplet_link </text>
<text text-anchor="middle" x="598" y="-83.8" font-family="Arial" font-size="14.00" fill="#000000">: SimpleChipletLink</text>
</a>
</g>
</g>
<g id="clust8" class="cluster">
<title>cluster_system_packet_gen</title>
<g id="a_clust8"><a xlink:title="Protocol=1&#10;eventq_index=0&#10;&#10;atency=2&#10;packet_num=2">
<path fill="#bab6ae" stroke="#000000" d="M724,-154C724,-154 827,-154 827,-154 833,-154 839,-160 839,-166 839,-166 839,-232 839,-232 839,-238 833,-244 827,-244 827,-244 724,-244 724,-244 718,-244 712,-238 712,-232 712,-232 712,-166 712,-166 712,-160 718,-154 724,-154"/>
<text text-anchor="middle" x="775.5" y="-228.8" font-family="Arial" font-size="14.00" fill="#000000">packet_gen </text>
<text text-anchor="middle" x="775.5" y="-213.8" font-family="Arial" font-size="14.00" fill="#000000">: PacketGenerator</text>
</a>
</g>
</g>
<g id="clust9" class="cluster">
<title>cluster_system_link</title>
<g id="a_clust9"><a xlink:title="eventq_index=0&#10;to_converter_buffer_size=32&#10;to_phy_buffer_size=32">
<path fill="#bab6ae" stroke="#000000" d="M36,-154C36,-154 692,-154 692,-154 698,-154 704,-160 704,-166 704,-166 704,-232 704,-232 704,-238 698,-244 692,-244 692,-244 36,-244 36,-244 30,-244 24,-238 24,-232 24,-232 24,-166 24,-166 24,-160 30,-154 36,-154"/>
<text text-anchor="middle" x="364" y="-228.8" font-family="Arial" font-size="14.00" fill="#000000">link </text>
<text text-anchor="middle" x="364" y="-213.8" font-family="Arial" font-size="14.00" fill="#000000">: LinkLayer</text>
</a>
</g>
</g>
<g id="clust10" class="cluster">
<title>cluster_system_protocol</title>
<g id="a_clust10"><a xlink:title="eventq_index=0&#10;sourceProtocolName=PCIe&#10;targetProtocolName=PCIe">
<path fill="#bab6ae" stroke="#000000" d="M244,-284C244,-284 538,-284 538,-284 544,-284 550,-290 550,-296 550,-296 550,-362 550,-362 550,-368 544,-374 538,-374 538,-374 244,-374 244,-374 238,-374 232,-368 232,-362 232,-362 232,-296 232,-296 232,-290 238,-284 244,-284"/>
<text text-anchor="middle" x="391" y="-358.8" font-family="Arial" font-size="14.00" fill="#000000">protocol </text>
<text text-anchor="middle" x="391" y="-343.8" font-family="Arial" font-size="14.00" fill="#000000">: ProtocolConverter</text>
</a>
</g>
</g>
<!-- system_chiplet_link_phy_port -->
<g id="node1" class="node">
<title>system_chiplet_link_phy_port</title>
<path fill="#94918b" stroke="#000000" d="M770.5,-68C770.5,-68 725.5,-68 725.5,-68 719.5,-68 713.5,-62 713.5,-56 713.5,-56 713.5,-44 713.5,-44 713.5,-38 719.5,-32 725.5,-32 725.5,-32 770.5,-32 770.5,-32 776.5,-32 782.5,-38 782.5,-44 782.5,-44 782.5,-56 782.5,-56 782.5,-62 776.5,-68 770.5,-68"/>
<text text-anchor="middle" x="748" y="-46.3" font-family="Arial" font-size="14.00" fill="#000000">phy_port</text>
</g>
<!-- system_chiplet_link_phy_to_link_port -->
<g id="node2" class="node">
<title>system_chiplet_link_phy_to_link_port</title>
<path fill="#94918b" stroke="#000000" d="M683,-68C683,-68 591,-68 591,-68 585,-68 579,-62 579,-56 579,-56 579,-44 579,-44 579,-38 585,-32 591,-32 591,-32 683,-32 683,-32 689,-32 695,-38 695,-44 695,-44 695,-56 695,-56 695,-62 689,-68 683,-68"/>
<text text-anchor="middle" x="637" y="-46.3" font-family="Arial" font-size="14.00" fill="#000000">phy_to_link_port</text>
</g>
<!-- system_chiplet_link_link_to_phy_slaveport -->
<g id="node3" class="node">
<title>system_chiplet_link_link_to_phy_slaveport</title>
<path fill="#94918b" stroke="#000000" d="M548.5,-68C548.5,-68 425.5,-68 425.5,-68 419.5,-68 413.5,-62 413.5,-56 413.5,-56 413.5,-44 413.5,-44 413.5,-38 419.5,-32 425.5,-32 425.5,-32 548.5,-32 548.5,-32 554.5,-32 560.5,-38 560.5,-44 560.5,-44 560.5,-56 560.5,-56 560.5,-62 554.5,-68 548.5,-68"/>
<text text-anchor="middle" x="487" y="-46.3" font-family="Arial" font-size="14.00" fill="#000000">link_to_phy_slaveport</text>
</g>
<!-- system_packet_gen_plp_port -->
<g id="node4" class="node">
<title>system_packet_gen_plp_port</title>
<path fill="#94918b" stroke="#000000" d="M773.5,-198C773.5,-198 732.5,-198 732.5,-198 726.5,-198 720.5,-192 720.5,-186 720.5,-186 720.5,-174 720.5,-174 720.5,-168 726.5,-162 732.5,-162 732.5,-162 773.5,-162 773.5,-162 779.5,-162 785.5,-168 785.5,-174 785.5,-174 785.5,-186 785.5,-186 785.5,-192 779.5,-198 773.5,-198"/>
<text text-anchor="middle" x="753" y="-176.3" font-family="Arial" font-size="14.00" fill="#000000">plp_port</text>
</g>
<!-- system_packet_gen_plp_port&#45;&gt;system_chiplet_link_phy_port -->
<g id="edge1" class="edge">
<title>system_packet_gen_plp_port&#45;&gt;system_chiplet_link_phy_port</title>
<path fill="none" stroke="black" d="M752.33,-161.74C751.49,-140.36 750.06,-103.69 749.07,-78.44"/>
<polygon fill="black" stroke="black" points="752.57,-78.25 748.68,-68.4 745.57,-78.53 752.57,-78.25"/>
</g>
<!-- system_link_link_to_phy_Port -->
<g id="node5" class="node">
<title>system_link_link_to_phy_Port</title>
<path fill="#94918b" stroke="#000000" d="M683.5,-198C683.5,-198 590.5,-198 590.5,-198 584.5,-198 578.5,-192 578.5,-186 578.5,-186 578.5,-174 578.5,-174 578.5,-168 584.5,-162 590.5,-162 590.5,-162 683.5,-162 683.5,-162 689.5,-162 695.5,-168 695.5,-174 695.5,-174 695.5,-186 695.5,-186 695.5,-192 689.5,-198 683.5,-198"/>
<text text-anchor="middle" x="637" y="-176.3" font-family="Arial" font-size="14.00" fill="#000000">link_to_phy_Port</text>
</g>
<!-- system_link_link_to_phy_Port&#45;&gt;system_chiplet_link_phy_to_link_port -->
<g id="edge2" class="edge">
<title>system_link_link_to_phy_Port&#45;&gt;system_chiplet_link_phy_to_link_port</title>
<path fill="none" stroke="black" d="M637,-151.72C637,-126.52 637,-89.84 637,-68.4"/>
<polygon fill="black" stroke="black" points="633.5,-151.74 637,-161.74 640.5,-151.74 633.5,-151.74"/>
</g>
<!-- system_link_link_to_converter_Port -->
<g id="node6" class="node">
<title>system_link_link_to_converter_Port</title>
<path fill="#94918b" stroke="#000000" d="M548,-198C548,-198 420,-198 420,-198 414,-198 408,-192 408,-186 408,-186 408,-174 408,-174 408,-168 414,-162 420,-162 420,-162 548,-162 548,-162 554,-162 560,-168 560,-174 560,-174 560,-186 560,-186 560,-192 554,-198 548,-198"/>
<text text-anchor="middle" x="484" y="-176.3" font-family="Arial" font-size="14.00" fill="#000000">link_to_converter_Port</text>
</g>
<!-- system_link_converter_to_link_slaveport -->
<g id="node7" class="node">
<title>system_link_converter_to_link_slaveport</title>
<path fill="#94918b" stroke="#000000" d="M378,-198C378,-198 220,-198 220,-198 214,-198 208,-192 208,-186 208,-186 208,-174 208,-174 208,-168 214,-162 220,-162 220,-162 378,-162 378,-162 384,-162 390,-168 390,-174 390,-174 390,-186 390,-186 390,-192 384,-198 378,-198"/>
<text text-anchor="middle" x="299" y="-176.3" font-family="Arial" font-size="14.00" fill="#000000">converter_to_link_slaveport</text>
</g>
<!-- system_link_link_to_phy_masterport -->
<g id="node8" class="node">
<title>system_link_link_to_phy_masterport</title>
<path fill="#94918b" stroke="#000000" d="M178,-198C178,-198 44,-198 44,-198 38,-198 32,-192 32,-186 32,-186 32,-174 32,-174 32,-168 38,-162 44,-162 44,-162 178,-162 178,-162 184,-162 190,-168 190,-174 190,-174 190,-186 190,-186 190,-192 184,-198 178,-198"/>
<text text-anchor="middle" x="111" y="-176.3" font-family="Arial" font-size="14.00" fill="#000000">link_to_phy_masterport</text>
</g>
<!-- system_link_link_to_phy_masterport&#45;&gt;system_chiplet_link_link_to_phy_slaveport -->
<g id="edge3" class="edge">
<title>system_link_link_to_phy_masterport&#45;&gt;system_chiplet_link_link_to_phy_slaveport</title>
<path fill="none" stroke="black" d="M161.32,-161.87C230.26,-138.4 353.89,-96.31 427.39,-71.29"/>
<polygon fill="black" stroke="black" points="428.64,-74.56 436.98,-68.03 426.38,-67.94 428.64,-74.56"/>
</g>
<!-- system_protocol_protocol_to_link_port -->
<g id="node9" class="node">
<title>system_protocol_protocol_to_link_port</title>
<path fill="#94918b" stroke="#000000" d="M370,-328C370,-328 252,-328 252,-328 246,-328 240,-322 240,-316 240,-316 240,-304 240,-304 240,-298 246,-292 252,-292 252,-292 370,-292 370,-292 376,-292 382,-298 382,-304 382,-304 382,-316 382,-316 382,-322 376,-328 370,-328"/>
<text text-anchor="middle" x="311" y="-306.3" font-family="Arial" font-size="14.00" fill="#000000">protocol_to_link_port</text>
</g>
<!-- system_protocol_protocol_to_link_port&#45;&gt;system_link_converter_to_link_slaveport -->
<g id="edge4" class="edge">
<title>system_protocol_protocol_to_link_port&#45;&gt;system_link_converter_to_link_slaveport</title>
<path fill="none" stroke="black" d="M309.38,-291.74C307.38,-270.36 303.94,-233.69 301.57,-208.44"/>
<polygon fill="black" stroke="black" points="305.05,-208.03 300.63,-198.4 298.08,-208.68 305.05,-208.03"/>
</g>
<!-- system_protocol_link_to_protocol_port -->
<g id="node10" class="node">
<title>system_protocol_link_to_protocol_port</title>
<path fill="#94918b" stroke="#000000" d="M530,-328C530,-328 412,-328 412,-328 406,-328 400,-322 400,-316 400,-316 400,-304 400,-304 400,-298 406,-292 412,-292 412,-292 530,-292 530,-292 536,-292 542,-298 542,-304 542,-304 542,-316 542,-316 542,-322 536,-328 530,-328"/>
<text text-anchor="middle" x="471" y="-306.3" font-family="Arial" font-size="14.00" fill="#000000">link_to_protocol_port</text>
</g>
<!-- system_protocol_link_to_protocol_port&#45;&gt;system_link_link_to_converter_Port -->
<g id="edge5" class="edge">
<title>system_protocol_link_to_protocol_port&#45;&gt;system_link_link_to_converter_Port</title>
<path fill="none" stroke="black" d="M473.77,-281.72C476.33,-256.52 480.06,-219.84 482.23,-198.4"/>
<polygon fill="black" stroke="black" points="470.28,-281.43 472.75,-291.74 477.25,-282.14 470.28,-281.43"/>
</g>
</g>
</svg>
