<?xml version="1.0" encoding="UTF-8" standalone="no"?>
<!DOCTYPE svg PUBLIC "-//W3C//DTD SVG 1.1//EN"
 "http://www.w3.org/Graphics/SVG/1.1/DTD/svg11.dtd">
<!-- Generated by graphviz version 2.43.0 (0)
 -->
<!-- Title: G Pages: 1 -->
<svg width="189pt" height="352pt"
 viewBox="0.00 0.00 189.00 352.00" xmlns="http://www.w3.org/2000/svg" xmlns:xlink="http://www.w3.org/1999/xlink">
<g id="graph0" class="graph" transform="scale(1 1) rotate(0) translate(4 348)">
<title>G</title>
<polygon fill="white" stroke="transparent" points="-4,4 -4,-348 185,-348 185,4 -4,4"/>
<g id="clust1" class="cluster">
<title>cluster_root</title>
<g id="a_clust1"><a xlink:title="eventq_index=0&#10;full_system=false&#10;sim_quantum=0&#10;time_sync_enable=false&#10;time_sync_period=100000000000&#10;time_sync_spin_threshold=100000000">
<path fill="#bab6ae" stroke="#000000" d="M20,-8C20,-8 161,-8 161,-8 167,-8 173,-14 173,-20 173,-20 173,-324 173,-324 173,-330 167,-336 161,-336 161,-336 20,-336 20,-336 14,-336 8,-330 8,-324 8,-324 8,-20 8,-20 8,-14 14,-8 20,-8"/>
<text text-anchor="middle" x="90.5" y="-320.8" font-family="Arial" font-size="14.00" fill="#000000">root </text>
<text text-anchor="middle" x="90.5" y="-305.8" font-family="Arial" font-size="14.00" fill="#000000">: Root</text>
</a>
</g>
</g>
<g id="clust2" class="cluster">
<title>cluster_system</title>
<g id="a_clust2"><a xlink:title="auto_unlink_shared_backstore=false&#10;cache_line_size=64&#10;eventq_index=0&#10;exit_on_work_items=false&#10;init_param=0&#10;m5ops_base=0&#10;mem_mode=atomic&#10;mem_ranges=&#10;memories=&#10;mmap_using_noreserve=false&#10;multi_thread=false&#10;&#10;um_work_ids=16&#10;&#13;eadfile=&#10;&#13;edirect_paths=&#10;shadow_rom_ranges=&#10;shared_backstore=&#10;symbolfile=&#10;thermal_components=&#10;thermal_model=Null&#10;work_begin_ckpt_count=0&#10;work_begin_cpu_id_exit=&#45;1&#10;work_begin_exit_count=0&#10;work_cpus_ckpt_count=0&#10;work_end_ckpt_count=0&#10;work_end_exit_count=0&#10;work_item_id=&#45;1&#10;workload=system.workload">
<path fill="#e4e7eb" stroke="#000000" d="M28,-16C28,-16 153,-16 153,-16 159,-16 165,-22 165,-28 165,-28 165,-278 165,-278 165,-284 159,-290 153,-290 153,-290 28,-290 28,-290 22,-290 16,-284 16,-278 16,-278 16,-28 16,-28 16,-22 22,-16 28,-16"/>
<text text-anchor="middle" x="90.5" y="-274.8" font-family="Arial" font-size="14.00" fill="#000000">system </text>
<text text-anchor="middle" x="90.5" y="-259.8" font-family="Arial" font-size="14.00" fill="#000000">: System</text>
</a>
</g>
</g>
<g id="clust7" class="cluster">
<title>cluster_system_chiplet_link</title>
<g id="a_clust7"><a xlink:title="bandwidth=16&#10;baseLatency=1&#10;bitErrorRate=1e&#45;12&#10;encodingOverhead=1.0&#10;eventq_index=0&#10;&#10;inkWidth=16&#10;protocol=0&#10;&#13;andomSeed=0">
<path fill="#bab6ae" stroke="#000000" d="M36,-24C36,-24 145,-24 145,-24 151,-24 157,-30 157,-36 157,-36 157,-102 157,-102 157,-108 151,-114 145,-114 145,-114 36,-114 36,-114 30,-114 24,-108 24,-102 24,-102 24,-36 24,-36 24,-30 30,-24 36,-24"/>
<text text-anchor="middle" x="90.5" y="-98.8" font-family="Arial" font-size="14.00" fill="#000000">chiplet_link </text>
<text text-anchor="middle" x="90.5" y="-83.8" font-family="Arial" font-size="14.00" fill="#000000">: SimpleChipletLink</text>
</a>
</g>
</g>
<g id="clust8" class="cluster">
<title>cluster_system_packet_gen</title>
<g id="a_clust8"><a xlink:title="Protocol=1&#10;eventq_index=0&#10;&#10;atency=1&#10;packet_num=10">
<path fill="#bab6ae" stroke="#000000" d="M39,-154C39,-154 142,-154 142,-154 148,-154 154,-160 154,-166 154,-166 154,-232 154,-232 154,-238 148,-244 142,-244 142,-244 39,-244 39,-244 33,-244 27,-238 27,-232 27,-232 27,-166 27,-166 27,-160 33,-154 39,-154"/>
<text text-anchor="middle" x="90.5" y="-228.8" font-family="Arial" font-size="14.00" fill="#000000">packet_gen </text>
<text text-anchor="middle" x="90.5" y="-213.8" font-family="Arial" font-size="14.00" fill="#000000">: PacketGenerator</text>
</a>
</g>
</g>
<!-- system_chiplet_link_plp_port -->
<g id="node1" class="node">
<title>system_chiplet_link_plp_port</title>
<path fill="#94918b" stroke="#000000" d="M110.5,-68C110.5,-68 69.5,-68 69.5,-68 63.5,-68 57.5,-62 57.5,-56 57.5,-56 57.5,-44 57.5,-44 57.5,-38 63.5,-32 69.5,-32 69.5,-32 110.5,-32 110.5,-32 116.5,-32 122.5,-38 122.5,-44 122.5,-44 122.5,-56 122.5,-56 122.5,-62 116.5,-68 110.5,-68"/>
<text text-anchor="middle" x="90" y="-46.3" font-family="Arial" font-size="14.00" fill="#000000">plp_port</text>
</g>
<!-- system_packet_gen_plp_port -->
<g id="node2" class="node">
<title>system_packet_gen_plp_port</title>
<path fill="#94918b" stroke="#000000" d="M110.5,-198C110.5,-198 69.5,-198 69.5,-198 63.5,-198 57.5,-192 57.5,-186 57.5,-186 57.5,-174 57.5,-174 57.5,-168 63.5,-162 69.5,-162 69.5,-162 110.5,-162 110.5,-162 116.5,-162 122.5,-168 122.5,-174 122.5,-174 122.5,-186 122.5,-186 122.5,-192 116.5,-198 110.5,-198"/>
<text text-anchor="middle" x="90" y="-176.3" font-family="Arial" font-size="14.00" fill="#000000">plp_port</text>
</g>
<!-- system_packet_gen_plp_port&#45;&gt;system_chiplet_link_plp_port -->
<g id="edge1" class="edge">
<title>system_packet_gen_plp_port&#45;&gt;system_chiplet_link_plp_port</title>
<path fill="none" stroke="black" d="M90,-161.74C90,-140.36 90,-103.69 90,-78.44"/>
<polygon fill="black" stroke="black" points="93.5,-78.4 90,-68.4 86.5,-78.4 93.5,-78.4"/>
</g>
</g>
</svg>
